<svg fill="none" height="92" viewBox="0 0 91 92" width="91" xmlns="http://www.w3.org/2000/svg">
    <g clip-path="url(#clip0_527_50)">
        <path
            d="M64.4313 73.0324C67.7174 70.7315 68.5071 66.1893 66.195 62.8874C63.8829 59.5854 59.3447 58.7739 56.0585 61.0749C52.7723 63.3759 51.9827 67.918 54.2948 71.22C56.6068 74.522 61.1451 75.3334 64.4313 73.0324Z"
            fill="#FFFF94" />
        <path
            d="M66.1953 62.8875C68.5074 66.1895 67.719 70.7306 64.4315 73.0326C61.7413 74.9163 58.2134 74.7133 55.7524 72.7665C57.6053 73.114 59.5848 72.7464 61.2476 71.5821C64.5338 69.2811 65.3243 64.7404 63.0113 61.437C62.592 60.8382 62.0994 60.3223 61.554 59.8906C63.363 60.2314 65.0522 61.255 66.1953 62.8875Z"
            fill="#E2AD27" />
        <path
            d="M82.4594 43.8596L83.9653 46.0102C84.7641 47.151 84.4911 48.7211 83.3558 49.516L35.8615 82.7719C34.7262 83.5668 33.1575 83.2863 32.3587 82.1456L30.8528 79.9949C30.2715 79.1648 30.2408 78.0653 30.7776 77.2108C31.7493 75.6558 32.2077 73.8829 32.1604 72.1214C32.1131 70.3599 31.5555 68.609 30.5004 67.1021L23.2365 56.7281C16.2456 46.7441 17.6294 33.195 26.0279 24.974C25.8796 24.8238 25.7442 24.6585 25.6202 24.4814C24.3633 22.6863 24.7922 20.219 26.5787 18.9681C28.3652 17.7172 30.8304 18.158 32.0873 19.953C32.2104 20.1288 32.3163 20.3108 32.4066 20.4958C37.125 18.2104 42.3347 17.5785 47.2844 18.4624C53.4452 19.564 59.1969 23.0184 63.0788 28.5623L70.4676 39.1147C72.5798 42.1312 76.2857 43.5964 79.8719 42.8326C80.3664 42.7267 80.8664 42.7745 81.3194 42.9538C81.7701 43.1327 82.1727 43.4417 82.4624 43.8555L82.4594 43.8596Z"
            fill="#F2BE2A" />
        <path
            d="M82.4596 43.8595L83.9656 46.0102C84.7643 47.151 84.4914 48.7211 83.3561 49.516L36.9576 82.0046L53.5564 67.0015C63.2723 58.2205 64.289 43.2678 55.8173 33.2018C49.476 25.6686 41.6182 22.1266 30.2691 22.3846C29.3553 19.0748 26.8168 19.5737 25.5036 20.0894C25.7744 19.6614 26.1338 19.2758 26.5758 18.9663C28.3623 17.7154 30.8275 18.1562 32.0844 19.9513C32.2075 20.1271 32.3134 20.3091 32.4037 20.4941C37.1221 18.2086 42.3318 17.5768 47.2815 18.4606C53.4423 19.5622 59.194 23.0167 63.0758 28.5606L70.4647 39.113C72.5769 42.1295 76.2828 43.5946 79.869 42.8309C80.3634 42.725 80.8635 42.7728 81.3164 42.9521C81.7671 43.1309 82.1698 43.44 82.4595 43.8537L82.4596 43.8595Z"
            fill="#E2AD27" />
        <path
            d="M26.7532 28.8062C24.4633 31.4044 18.7131 39.7508 24.5657 53.1184C24.6982 53.4196 25.0722 53.5281 25.3406 53.3402L25.4748 53.2462C25.6313 53.1366 25.7145 52.9503 25.691 52.7599C25.4355 50.6674 24.2122 38.3844 29.7364 31.8963C30.0615 31.515 30.0657 30.9526 29.7467 30.5614L28.3417 28.8404C27.9329 28.3406 27.1779 28.3236 26.7532 28.8062Z"
            fill="#FFD671" />
    </g>
    <defs>
        <clipPath id="clip0_527_50">
            <rect fill="white" height="66" transform="translate(0.772461 37.0356) rotate(-35)"
                width="63" />
        </clipPath>
    </defs>
</svg>
