<svg width="72" height="50" viewBox="0 0 72 50" fill="none" xmlns="http://www.w3.org/2000/svg">
<g clip-path="url(#clip0_150_165)">
<path d="M70.116 28.599C69.3831 24.8711 66.1462 20.8361 62.7309 20.6213C65.5274 18.6479 65.8591 12.5152 64.5331 8.95524C61.0347 -0.439184 49.4104 -0.662524 43.3642 5.45289C40.1101 8.74442 37.613 12.8575 35.5437 17.1598C33.8109 20.7625 30.5079 29.7239 30.5327 29.7407C30.5208 29.7687 38.0223 35.6693 41.3833 37.8289C45.397 40.4082 49.6759 42.6017 54.1696 43.699C62.5202 45.7378 72.0506 38.437 70.116 28.599Z" fill="#B22759"/>
<g style="mix-blend-mode:multiply" opacity="0.12">
<path d="M52.8057 41.9016C49.2388 40.3239 45.7411 38.3165 42.5607 35.9639C39.4849 33.6885 36.5575 30.8307 34.8407 27.259C34.0154 25.5432 33.5599 23.7634 33.4714 21.9822C31.9747 25.719 30.5009 29.7362 30.5181 29.7482C30.5062 29.7762 38.0077 35.6769 41.3688 37.8365C45.3824 40.4157 49.6614 42.6093 54.155 43.7065C55.6092 44.0614 57.0995 44.1325 58.5585 43.9572C56.5995 43.4351 54.6765 42.7291 52.8066 41.9015L52.8057 41.9016Z" fill="black"/>
</g>
<path d="M17.6214 21.48L28.5811 20.5212L35.5563 17.1227L39.1985 17.7035L40.5613 21.9915L38.2681 22.462L37.0537 19.8699L33.394 22.1688L31.4455 27.2566L28.7589 25.6325L15.9639 28.191L17.6214 21.48Z" fill="#B98149"/>
<path d="M27.2749 20.6355C27.2749 20.6355 26.2878 23.3815 27.7301 25.8385L25.847 26.2146C25.847 26.2146 24.3231 23.5021 25.4928 20.7914L27.2749 20.6355Z" fill="#293A53"/>
<path d="M19.4492 19.7911L-11.8519 20.1794L-10.3851 36.9444C1.38829 34.2441 18.3011 29.2458 18.3011 29.2458L19.4492 19.7911Z" fill="#525050"/>
<path d="M39.2876 19.55L39.7421 19.0083L41.0869 22.9059L40.0907 22.9931L39.2876 19.55Z" fill="#FF7D97"/>
</g>
<defs>
<clipPath id="clip0_150_165">
<rect width="43" height="81" fill="white" transform="translate(67.6919) rotate(85)"/>
</clipPath>
</defs>
</svg>
