<svg fill="none" height="281" viewBox="0 0 435 281" width="435" xmlns="http://www.w3.org/2000/svg">
    <g clip-path="url(#clip0_0_1)">
        <path d="M47.085 150.251L52.4272 161.223L48.3515 164.177L47.085 150.251Z" fill="#EAC8A7" />
        <path
            d="M43.4086 133.677C43.4086 133.677 56.8036 153.609 54.788 162.84L41.4668 176.135L36.1246 191.747L16.5889 190.48L20.3491 171.751L19.1959 139.447L43.4086 133.677Z"
            fill="#EFD7BC" />
        <path
            d="M19.117 175.193C19.117 175.193 8.15155 155.877 10.6798 142.657C12.3899 133.726 27.5493 128.312 40.4811 127C40.4811 127 49.2879 133.001 44.0442 136C44.0442 136 47.7946 140.314 42.7333 142.188L43.6697 144.437C43.6697 144.437 45.7297 150.626 43.8569 153.062L44.1378 157.564L41.8905 158.407C41.8905 158.407 41.7969 152.5 38.9878 151.937C36.1787 151.375 33.3449 157.219 34.301 160.094C35.9865 165.158 39.3623 164.315 39.3623 164.315L36.8341 176.692C36.8341 176.692 26.4305 179.128 19.1219 175.193H19.117Z"
            fill="#F1B762" />
        <path d="M33.7343 145.379C33.754 145.344 33.7639 145.315 33.7836 145.285C31.0681 145.275 28.3773 144.9 25.8096 143.988C21.3397 142.39 17.7716 139.594 14.9181 136.024C12.6905 137.952 11.1628 140.171 10.6897 142.662C8.16146 155.882 19.122 175.198 19.122 175.198C25.1887 178.467 33.3745 177.343 35.9915 176.865C33.6899 173.995 31.3047 149.807 33.7442 145.379H33.7343Z"
            fill="#001228"
            opacity="0.05" />
        <path
            d="M40.2938 162.441C39.8158 162.406 39.3476 162.293 38.8942 162.086C38.7858 162.027 38.6724 161.972 38.5689 161.889C38.4605 161.82 38.3718 161.716 38.2831 161.612C38.2042 161.494 38.1303 161.376 38.1007 161.233C38.0465 161.095 38.0712 160.947 38.0761 160.804C38.1155 160.675 38.1303 160.523 38.1993 160.409L38.288 160.232C38.3077 160.197 38.3127 160.177 38.3422 160.133L38.3915 160.059C38.5344 159.862 38.6428 159.67 38.8203 159.477L39.0815 159.186L39.3969 158.935C39.5299 158.871 39.6384 158.787 39.8108 158.757C39.8946 158.742 39.9735 158.723 40.072 158.738C40.1706 158.747 40.2495 158.757 40.3875 158.851L39.9341 159.078C39.8897 158.511 39.8256 157.929 39.7369 157.357C39.6433 156.79 39.5349 156.223 39.3574 155.685C39.2737 155.419 39.1652 155.157 39.0273 154.921C38.9583 154.802 38.8843 154.694 38.7956 154.6C38.7069 154.502 38.6034 154.437 38.495 154.383C38.3816 154.349 38.2584 154.314 38.1303 154.334C38.0022 154.344 37.8691 154.388 37.741 154.447C37.4798 154.561 37.258 154.753 37.0264 154.936C37.12 154.827 37.2087 154.699 37.3171 154.595C37.4206 154.487 37.534 154.388 37.6621 154.304C37.7903 154.22 37.9282 154.142 38.0909 154.102C38.2486 154.058 38.426 154.058 38.5936 154.102C38.7562 154.156 38.909 154.235 39.0371 154.349C39.1652 154.452 39.2737 154.576 39.3624 154.704C39.5447 154.965 39.6827 155.241 39.801 155.522C40.0228 156.089 40.1755 156.676 40.279 157.263C40.3825 157.855 40.4614 158.442 40.491 159.043L40.0375 159.27C40.072 159.3 40.0375 159.27 40.0178 159.28C39.9981 159.27 39.9636 159.28 39.9291 159.29C39.8601 159.29 39.7714 159.359 39.6926 159.388L39.4462 159.571L39.2195 159.798C39.0667 159.941 38.9287 160.163 38.7759 160.335L38.7217 160.404L38.6872 160.463L38.6034 160.597C38.5344 160.685 38.5344 160.779 38.4901 160.873C38.4901 160.962 38.4506 161.06 38.4802 161.149C38.4851 161.243 38.5295 161.326 38.5738 161.415C38.633 161.494 38.6872 161.583 38.7759 161.657C38.8498 161.736 38.9435 161.8 39.0322 161.869C39.4067 162.125 39.8552 162.293 40.3086 162.436L40.2938 162.441Z"
            fill="#E0B999" />
        <path
            d="M35.9814 294.835L41.92 330.005H63.0426C61.6824 315.443 57.7348 275.337 54.5364 263.897C50.5987 249.833 8.99414 264.271 8.99414 264.271C8.99414 264.271 10.5613 284.583 12.9318 287.522C18.3677 294.273 35.9814 294.835 35.9814 294.835Z"
            fill="#414074" />
        <path
            d="M55.0391 265.894C54.8715 265.159 54.7039 264.483 54.5364 263.892C50.5987 249.828 8.99414 264.266 8.99414 264.266C8.99414 264.266 9.1617 266.436 9.47218 269.459C19.171 269.558 42.0432 269.375 55.0391 265.894Z"
            fill="#34345E" />
        <path
            d="M12.0744 182.319C12.0744 182.319 23.8628 179.508 42.5509 186.259L41.4026 191.885C41.4026 191.885 49.7412 212.419 50.6037 230.423C51.4661 248.427 54.3393 265.864 54.3393 265.864L5.1748 266.895C5.1748 266.895 8.04799 239.896 9.32442 232.425C11.3352 220.61 12.651 188.512 12.651 188.512L12.0744 182.324V182.319Z"
            fill="#205273" />
        <path
            d="M43.6451 193.167C42.6298 193.552 41.6146 193.942 40.6043 194.346L40.2002 195.569C40.2002 195.569 46.2521 217.553 44.956 236.079C44.1527 247.594 44.1675 258.97 44.2956 265.938L56.084 265.864C56.084 265.864 53.2109 248.422 52.3484 230.423C51.6141 215.087 45.4587 197.926 43.65 193.172L43.6451 193.167Z"
            fill="#4D82A5" />
        <path
            d="M94.8744 175.711C94.3126 168.96 89.1133 170.508 89.1133 170.508C89.1133 170.508 87.2849 165.163 73.3723 163.476C59.4549 161.79 55.0983 176.978 55.0983 176.978C52.2892 185.134 57.4885 196.245 61.1404 201.171C64.7971 206.092 75.1958 211.3 83.4901 203C85.0869 201.403 86.2007 199.687 86.9645 197.961C86.0528 202.167 87.7974 205.604 87.7974 205.604C92.8588 199.415 96.3431 193.38 94.8695 175.716L94.8744 175.711Z"
            fill="#1F2D38" />
        <path
            d="M86.6147 199.48C87.3835 196.649 87.8369 193.769 88.0241 190.84C86.3781 192.798 78.1873 195.505 71.2631 193.996C63.5306 192.309 59.5978 190.056 54.3394 183.423C54.7632 190.243 58.3904 197.463 61.1404 201.171C64.7972 206.092 75.1958 211.3 83.4901 203C85.0869 201.403 86.2007 199.687 86.9646 197.961C86.8512 198.483 86.7329 198.996 86.6147 199.484V199.48Z"
            fill="#1B242D" />
        <path
            d="M87.827 185.687C87.827 185.687 85.4515 182.733 85.215 187.654C84.9784 192.576 86.2351 194.124 87.4179 193.843C88.5958 193.562 88.7338 186.811 87.827 185.687Z"
            fill="#E2B582" />
        <path d="M85.2051 189.523C85.3332 192.97 86.4027 194.09 87.4179 193.843C87.9551 193.715 88.2754 192.25 88.3789 190.584C87.2454 190.377 86.1759 190.066 85.2051 189.523Z"
            fill="#001228"
            opacity="0.1" />
        <path
            d="M119.629 296.043C116.894 293.45 111.439 229.299 108.733 223.539C105.116 215.841 101.267 214.441 101.267 214.441L101.523 213.642L95.8208 230.837C95.8208 230.837 98.5067 290.091 106.377 295.54C108.61 292.286 116.791 298.696 119.629 296.043Z"
            fill="#E2B582" />
        <path d="M106.52 237.48C108.117 234.437 110.088 231.641 111.862 228.717C110.66 227.055 109.561 225.3 108.733 223.539C105.116 215.841 101.267 214.441 101.267 214.441L101.523 213.642L95.8208 230.837C95.8208 230.837 99.9261 235.719 105.066 240.532C105.5 239.423 106.052 238.367 106.52 237.48Z"
            fill="#001228"
            opacity="0.1" />
        <path
            d="M115.711 284.115C111.769 280.564 108.698 275.52 107.392 270.776C107.151 269.903 106.963 269.01 106.816 268.093C104.78 265.46 103.267 263.892 103.267 263.892L63.7227 263.142C63.7227 263.142 52.2891 284.519 53.605 296.709C54.9159 308.899 58.8536 315.837 58.8536 315.837C70.6617 318.461 83.5935 318.836 83.5935 318.836V316.4L84.3426 318.461C99.3345 321.459 115.268 318.274 115.268 318.274C115.268 318.274 119.56 304.456 116.953 289.021C116.672 287.355 116.248 285.712 115.716 284.115H115.711Z"
            fill="#F1B762" />
        <path d="M103.706 264.37C103.425 264.059 103.262 263.892 103.262 263.892L63.7177 263.142C63.7177 263.142 62.6137 265.203 61.1353 268.409C69.2521 269.617 90.0445 271.722 103.706 264.37Z"
            fill="#001228"
            opacity="0.1" />
        <path
            d="M52.2892 217.76L52.6638 218.509C52.6638 218.509 49.076 220.477 46.666 228.633C44.2315 236.883 36.5483 245.888 36.5483 245.888C36.5483 245.888 14.4548 239.398 12.2223 238.185C11.6999 235.586 9.63989 231.656 9.06821 231.543C8.61973 231.454 8.85629 233.703 9.08792 235.35C8.54088 234.861 7.83121 234.289 6.82091 233.584C4.73132 232.125 -3.74532 226.015 4.87424 234.639C4.87424 234.639 -5.43572 227.514 3.93787 235.764C3.93787 235.764 -4.30714 231.449 3.75059 237.45C3.75059 237.45 -4.68169 232.948 4.68697 240.261C14.0556 247.574 30.3633 256.386 38.6083 256.386C46.8533 256.386 60.5342 233.885 60.5342 233.885L52.2892 217.76Z"
            fill="#E2B582" />
        <path d="M53.3636 244.241C57.4688 238.93 60.5342 233.885 60.5342 233.885L52.2892 217.76L52.6638 218.509C52.6638 218.509 49.076 220.477 46.6661 228.633C46.0895 230.581 45.2221 232.573 44.2266 234.477C47.7256 237.273 50.5446 240.749 53.3636 244.236V244.241Z"
            fill="#001228"
            opacity="0.1" />
        <path
            d="M53.7874 217.198C53.7874 217.198 45.5424 221.7 44.2314 232.011L54.3492 244.951L55.2856 243.452C55.2856 243.452 58.4692 257.703 61.8451 265.766C61.8451 265.766 87.7087 269.706 104.011 263.704L101.39 244.576C101.39 244.576 104.573 242.889 103.45 238.762L111.695 226.572C111.695 226.572 105.322 211.384 94.8301 211.009C84.3329 210.634 53.7874 217.198 53.7874 217.198Z"
            fill="#ED817E" />
        <path d="M96.0033 256.066C82.2337 255.957 68.5084 252.599 56.0596 246.721C57.2079 251.411 59.4798 260.114 61.8454 265.77C61.8454 265.77 87.709 269.71 104.012 263.709L102.928 255.799C100.631 255.992 98.3196 256.085 96.0033 256.071V256.066Z"
            fill="#001228"
            opacity="0.1" />
        <path d="M59.8885 227.05C65.1864 228.604 71.2088 228.983 76.6053 227.603C85.8556 225.236 93.2776 219.18 99.5267 212.197C98.0728 211.507 96.5056 211.068 94.835 211.009C84.3377 210.634 53.7922 217.198 53.7922 217.198C53.7922 217.198 50.8156 218.825 48.1543 222.361C52.0723 223.909 55.8523 225.867 59.8935 227.05H59.8885Z"
            fill="#001228"
            opacity="0.1" />
        <path
            d="M44.6011 193.01C44.6011 193.01 61.9437 206.906 68.8778 210.097C100.084 195.87 99.7781 194.79 102.888 193.01C104.199 192.26 107.013 175.006 106.638 190.761C106.638 190.761 126.317 175.573 109.447 192.448C109.447 192.448 135.498 172.57 112.257 194.134C112.257 194.134 135.119 180.445 114.129 196.758C114.129 196.758 131.768 187.871 114.504 199.756C97.0725 211.758 75.5211 223.948 69.7107 223.381C63.9002 222.819 33.1675 210.067 33.1675 207.444C33.1675 204.82 44.6011 193.005 44.6011 193.005V193.01Z"
            fill="#EFD7BC" />
        <path
            d="M54.2556 222.262C54.2556 222.262 23.2123 209.835 31.4869 196.383C38.9828 184.193 63.5355 202.009 63.5355 202.009L54.2605 222.262H54.2556Z"
            fill="#205273" />
        <path
            d="M60.8593 180.632C60.8593 180.632 55.517 173.6 50.1748 175.006C44.8325 176.411 40.4759 183.586 41.8805 190.475C43.285 197.369 44.6088 220.8 38 221.5C38 221.5 53.8288 224.529 56.5 213C58.9247 202.521 50.8746 179.365 57.6214 181.476C65.0631 183.803 60.8543 180.632 60.8543 180.632H60.8593Z"
            fill="#1B242D" />
        <path
            d="M58.893 178.522C58.893 178.522 58.893 181.052 57.6265 181.476C57.6265 181.476 58.1883 183.162 60.0167 183.586C61.8451 184.01 62.8258 180.913 62.4069 180.07C61.9831 179.227 58.893 176.273 58.893 178.522Z"
            fill="#725471" />
        <path
            d="M10.0736 143.007C10.8424 147.046 14.5583 166.051 12.0005 171.83C7.18558 182.713 6.35763 199.484 1.35049 208.183C-1.67547 213.445 2.57764 216.167 10.66 232.608C15.8446 229.585 10.177 221.527 17.4561 215.738C27.6429 207.631 29.6684 197.058 33.2266 189.405C34.9811 185.623 37.6276 178.167 36.2476 167.244"
            fill="#F1B762" />
        <path
            d="M29.4959 172.89C28.1505 176.278 26.4059 181.717 26.1397 188.503C25.6075 202.216 31.615 208.923 27.4802 216.537C24.1438 222.686 16.8154 224.604 17.0766 225.097C17.3625 225.63 25.7159 223.016 30.8315 218.884C45.8726 206.733 39.796 175.898 37.3762 165.498"
            fill="#F1B762" />
    </g>
    <path clip-rule="evenodd" d="M342 38C342 38 346.885 23.7587 358.398 19.9564C366.929 17.1406 368.818 23.5214 368.818 23.5214C368.818 23.5214 384.003 -0.684402 407.925 0.0148639C431.835 0.71413 430.678 21.2863 430.678 21.2863C430.678 21.2863 436.363 13.1199 444.837 14.2749C452.599 15.33 451.023 24.4517 451.023 24.4517C451.023 24.4517 459.735 18.4518 465.951 22.1292C473.944 26.8617 463.694 38 463.694 38H342Z"
        fill="white"
        fill-rule="evenodd" />
    <path clip-rule="evenodd" d="M308.347 149.623C308.347 149.623 305.13 150.972 301.727 149.773C297.38 148.248 298.92 142.698 301.572 140.959C305.279 138.523 308.62 140.111 308.62 140.111C308.62 140.111 310.067 133.544 317.947 133.017C322.045 132.74 323.498 135.993 323.498 135.993C323.498 135.993 329.453 130.957 334.446 134.279C337.37 136.225 335.402 138.68 335.402 138.68C335.402 138.68 343.94 135.026 345.753 141.706C347.585 148.461 338.612 148.806 338.612 148.806C338.612 148.806 338.103 155.06 332.39 155.348C325.553 155.687 324.74 152.197 324.74 152.197C324.74 152.197 320.356 157.044 314.364 155.794C308.707 154.614 308.34 149.629 308.34 149.629L308.347 149.623Z"
        fill="white"
        fill-rule="evenodd" />
    <path clip-rule="evenodd" d="M144.036 89.5602C135.706 92.264 114.298 91.8423 123.073 78.1372C128.176 70.1684 139.877 73.4676 139.877 73.4676C139.877 73.4676 142.348 61.1268 154.049 59.192C164.093 57.5362 168.746 67.136 168.746 67.136C168.746 67.136 175.726 56.5006 188.859 60.4943C198.553 63.4399 196.733 72.1777 196.733 72.1777C196.733 72.1777 213.212 68.6925 219.048 76.0412C222.287 80.1217 223.4 91.7059 206.752 94.3725C197.928 95.7864 184.969 92.264 184.969 92.264C184.969 92.264 174.331 102.534 156.619 99.4081C150.322 98.298 140.096 93.8516 144.03 89.5602H144.036Z"
        fill="white"
        fill-rule="evenodd" />
    <defs>
        <clipPath id="clip0_0_1">
            <rect fill="white" height="203" transform="translate(0 127)" width="123" />
        </clipPath>
    </defs>
</svg>
